<svg width="51" height="57" viewBox="0 0 51 57" fill="none" xmlns="http://www.w3.org/2000/svg">
<path d="M33.9973 17.8125V1.78125C33.9973 0.797109 33.0464 0 31.8723 0H27.6223C26.4483 0 25.4973 0.797109 25.4973 1.78125V18.1387C26.1641 17.9405 26.8706 17.8125 27.6184 17.8125H33.9973ZM50.9973 28.4989C50.996 24.5646 47.1909 21.375 42.4987 21.375H27.6051C26.439 21.375 25.4934 22.1621 25.4934 23.1396V23.2019C25.4934 26.1265 28.3223 28.5 31.8113 28.5H36.4942C37.7798 28.5 38.2473 28.8986 38.2473 29.3906V31.1941C38.2473 31.6717 37.7705 32.0603 37.2008 32.0848C31.288 32.3386 28.6795 34.8357 24.4441 40.1616L23.6061 41.2159C23.5288 41.3132 23.4293 41.3968 23.3135 41.4619C23.1976 41.5271 23.0675 41.5724 22.9307 41.5953C22.794 41.6183 22.6531 41.6184 22.5163 41.5957C22.3794 41.573 22.2493 41.5279 22.1332 41.463L20.3655 40.4745C20.2493 40.4096 20.1496 40.3263 20.0719 40.2292C19.9943 40.132 19.9402 40.023 19.9128 39.9084C19.8854 39.7937 19.8853 39.6756 19.9124 39.5609C19.9394 39.4462 19.9932 39.3371 20.0706 39.2398L20.9087 38.1855C22.9978 35.5582 24.9196 33.3695 27.192 31.7196C24.8984 31.1062 23.0217 29.7023 22.0296 27.8844C21.1544 28.264 20.1755 28.4989 19.125 28.4989H14.875C13.2361 28.4989 11.7552 27.9634 10.625 27.1095C9.49344 27.9645 8.01258 28.5 6.375 28.5H2.125C1.37594 28.5 0.668047 28.372 0 28.1716V36.8474C0 40.627 1.79031 44.2507 4.97914 46.9237L8.49867 49.875V57H42.496V49.8795L47.2653 45.8805C49.657 43.8753 51.0004 41.1558 51 38.3203L50.9973 28.4989ZM46.746 18.4693V5.34375C46.746 4.35961 45.7951 3.5625 44.621 3.5625H40.371C39.197 3.5625 38.246 4.35961 38.246 5.34375V17.8125H42.496C43.9941 17.8125 45.4099 18.0697 46.746 18.4693ZM2.125 24.9375H6.375C7.54906 24.9375 8.5 24.1404 8.5 23.1562V8.90625C8.5 7.92211 7.54906 7.125 6.375 7.125H2.125C0.950938 7.125 0 7.92211 0 8.90625V23.1562C0 24.1404 0.950938 24.9375 2.125 24.9375ZM14.8737 24.9375H19.1237C20.2977 24.9375 21.2487 24.1404 21.2487 23.1562V5.34375C21.2487 4.35961 20.2977 3.5625 19.1237 3.5625H14.8737C13.6996 3.5625 12.7487 4.35961 12.7487 5.34375V23.1562C12.7487 24.1404 13.6996 24.9375 14.8737 24.9375Z" fill="#79C762"/>
</svg>
