<svg width="68" height="57" viewBox="0 0 68 57" fill="none" xmlns="http://www.w3.org/2000/svg">
<path d="M64.3612 41.5588C64.6353 39.9891 64.6353 38.3859 64.3612 36.8162L67.0812 35.1574C67.3974 34.9682 67.5345 34.5785 67.4291 34.2111C66.7227 31.8064 65.5103 29.6244 63.929 27.8209C63.6865 27.5426 63.2964 27.4758 62.9802 27.665L60.2602 29.3238C59.1111 28.2885 57.7933 27.4869 56.3701 26.9525V23.635C56.3701 23.2564 56.1171 22.9225 55.7692 22.8445C53.4182 22.2879 51.0251 22.3102 48.7901 22.8445C48.4422 22.9225 48.1892 23.2564 48.1892 23.635V26.9525C46.766 27.4869 45.4482 28.2885 44.2991 29.3238L41.5791 27.665C41.2734 27.4758 40.8728 27.5426 40.6303 27.8209C39.049 29.6244 37.8366 31.8064 37.1303 34.2111C37.0248 34.5785 37.1724 34.9682 37.4782 35.1574L40.1981 36.8162C39.924 38.3859 39.924 39.9891 40.1981 41.5588L37.4782 43.2176C37.1619 43.4068 37.0248 43.7965 37.1303 44.1639C37.8366 46.5686 39.049 48.7395 40.6303 50.5541C40.8728 50.8324 41.2629 50.8992 41.5791 50.71L44.2991 49.0512C45.4482 50.0865 46.766 50.8881 48.1892 51.4225V54.74C48.1892 55.1186 48.4422 55.4525 48.7901 55.5305C51.1411 56.0871 53.5342 56.0648 55.7692 55.5305C56.1171 55.4525 56.3701 55.1186 56.3701 54.74V51.4225C57.7933 50.8881 59.1111 50.0865 60.2602 49.0512L62.9802 50.71C63.2859 50.8992 63.6865 50.8324 63.929 50.5541C65.5103 48.7506 66.7227 46.5686 67.4291 44.1639C67.5345 43.7965 67.3869 43.4068 67.0812 43.2176L64.3612 41.5588ZM52.2902 44.5869C49.4648 44.5869 47.1771 42.16 47.1771 39.1875C47.1771 36.215 49.4754 33.7881 52.2902 33.7881C55.105 33.7881 57.4033 36.215 57.4033 39.1875C57.4033 42.16 55.1156 44.5869 52.2902 44.5869ZM23.6149 28.5C31.0684 28.5 37.1092 22.1209 37.1092 14.25C37.1092 6.3791 31.0684 0 23.6149 0C16.1615 0 10.1207 6.3791 10.1207 14.25C10.1207 22.1209 16.1615 28.5 23.6149 28.5ZM44.8262 53.7158C44.5837 53.5822 44.3412 53.4264 44.1093 53.2816L43.2765 53.7938C42.6439 54.1723 41.927 54.3838 41.2102 54.3838C40.061 54.3838 38.9541 53.8717 38.1634 52.9811C36.2342 50.7768 34.7582 48.0937 33.9254 45.2326C33.3455 43.2621 34.1257 41.1803 35.8125 40.1449L36.6453 39.6328C36.6348 39.3434 36.6348 39.0539 36.6453 38.7645L35.8125 38.2523C34.1257 37.2281 33.3455 35.1352 33.9254 33.1646C34.0203 32.8418 34.1573 32.5189 34.2627 32.1961C33.8621 32.1627 33.4721 32.0625 33.0609 32.0625H31.3003C28.9599 33.198 26.3559 33.8437 23.6149 33.8437C20.8739 33.8437 18.2805 33.198 15.9295 32.0625H14.169C6.34651 32.0625 0 38.7645 0 47.025V51.6562C0 54.6064 2.26661 57 5.06034 57H42.1695C43.2343 57 44.2253 56.6438 45.037 56.0537C44.9105 55.6307 44.8262 55.1965 44.8262 54.74V53.7158Z" fill="white"/>
</svg>
