<svg width="10" height="10" viewBox="0 0 10 10" fill="none" xmlns="http://www.w3.org/2000/svg">
<path d="M9.81055 3.30208C9.88672 3.22135 10 3.29688 10 3.42448V8.75C10 9.4401 9.58008 10 9.0625 10H0.9375C0.419922 10 0 9.4401 0 8.75V3.42708C0 3.29688 0.111328 3.22396 0.189453 3.30469C0.626953 3.75781 1.20703 4.33333 3.19922 6.26302C3.61133 6.66406 4.30664 7.50781 5 7.5026C5.69727 7.51042 6.40625 6.64844 6.80273 6.26302C8.79492 4.33333 9.37305 3.75521 9.81055 3.30208ZM5 6.66667C5.45312 6.67708 6.10547 5.90625 6.43359 5.58854C9.02539 3.08073 9.22266 2.86198 9.82031 2.23698C9.93359 2.11979 10 1.9375 10 1.74479V1.25C10 0.559896 9.58008 0 9.0625 0H0.9375C0.419922 0 0 0.559896 0 1.25V1.74479C0 1.9375 0.0664062 2.11719 0.179688 2.23698C0.777344 2.85937 0.97461 3.08073 3.56641 5.58854C3.89453 5.90625 4.54688 6.67708 5 6.66667Z" fill="white"/>
</svg>
