<svg width="10" height="12" viewBox="0 0 10 12" fill="none" xmlns="http://www.w3.org/2000/svg">
<path d="M2.23839 12H0.165179V3.98821H2.23839V12ZM1.20067 2.89533C0.537723 2.89533 0 2.23639 0 1.44084C4.74509e-09 1.0587 0.126499 0.69222 0.351668 0.422011C0.576837 0.151802 0.882232 0 1.20067 0C1.51911 0 1.8245 0.151802 2.04967 0.422011C2.27484 0.69222 2.40134 1.0587 2.40134 1.44084C2.40134 2.23639 1.86339 2.89533 1.20067 2.89533ZM9.99777 12H7.92902V8.09991C7.92902 7.17043 7.91339 5.97844 6.85112 5.97844C5.77321 5.97844 5.60804 6.98828 5.60804 8.03295V12H3.53705V3.98821H5.52545V5.0811H5.55446C5.83125 4.45162 6.50737 3.78732 7.51607 3.78732C9.61429 3.78732 10 5.44539 10 7.59901V12H9.99777Z" fill="white"/>
</svg>
