<svg width="73" height="64" viewBox="0 0 73 64" fill="none" xmlns="http://www.w3.org/2000/svg">
<path d="M36.5 0C16.328 0 3.7895e-10 16.3566 3.7895e-10 36.5714V43.4286C-1.09183e-05 44.2775 0.23593 45.1098 0.681383 45.8319C1.12684 46.5541 1.7642 47.1378 2.52206 47.5174L4.57277 48.5447C4.85949 57.129 11.894 64 20.5312 64H23.9531C25.843 64 27.375 62.465 27.375 60.5714V35.4286C27.375 33.535 25.843 32 23.9531 32H20.5312C16.0626 32 12.0235 33.8399 9.125 36.8039V36.5714C9.125 21.4473 21.4054 9.14286 36.5 9.14286C51.5946 9.14286 63.875 21.4473 63.875 36.5714V36.8039C60.9765 33.8399 56.9374 32 52.4688 32H49.0469C47.157 32 45.625 33.535 45.625 35.4286V60.5714C45.625 62.465 47.157 64 49.0469 64H52.4688C61.106 64 68.1405 57.1289 68.4272 48.5447L70.4778 47.5174C71.2357 47.1378 71.8731 46.5541 72.3186 45.832C72.764 45.1098 73 44.2776 73 43.4286V36.5714C73 16.3601 56.6754 0 36.5 0Z" fill="white"/>
</svg>
