<svg width="65" height="42" viewBox="0 0 65 42" fill="none" xmlns="http://www.w3.org/2000/svg">
<path d="M44.1492 0H35.425C34.6125 0 33.8305 0.328006 33.2313 0.918417L23.2477 10.7586C23.2375 10.7695 23.2273 10.7914 23.2172 10.8023C21.5312 12.508 21.5617 15.2304 23.0039 16.9251C24.2938 18.4449 27.0055 18.8494 28.7016 17.2203C28.7117 17.2094 28.732 17.2094 28.7422 17.1985L36.857 9.1951C37.5172 8.55002 38.5531 8.59376 39.1523 9.30444C39.7617 10.0151 39.7109 11.1194 39.0508 11.7754L36.4 14.3885L51.1875 27.312C51.482 27.5744 51.7461 27.8586 51.9898 28.1539V6.99746L46.4445 1.02775C45.8453 0.37174 45.0125 0 44.1492 0ZM55.25 7.01933V31.4995C55.25 33.4347 56.7023 34.9982 58.5 34.9982H65V7.01933H55.25ZM60.125 31.4995C59.2313 31.4995 58.5 30.7123 58.5 29.7501C58.5 28.788 59.2313 28.0008 60.125 28.0008C61.0187 28.0008 61.75 28.788 61.75 29.7501C61.75 30.7123 61.0187 31.4995 60.125 31.4995ZM0 34.9873H6.5C8.29766 34.9873 9.75 33.4238 9.75 31.4886V7.01933H0V34.9873ZM4.875 28.0008C5.76875 28.0008 6.5 28.788 6.5 29.7501C6.5 30.7123 5.76875 31.4995 4.875 31.4995C3.98125 31.4995 3.25 30.7123 3.25 29.7501C3.25 28.7771 3.98125 28.0008 4.875 28.0008ZM49.1461 30.0344L33.9828 16.783L30.9359 19.7897C27.9195 22.7527 23.2984 22.4684 20.607 19.3086C17.875 16.0942 18.0883 11.1194 21.0539 8.18922L29.3617 0H20.8508C19.9875 0 19.1648 0.37174 18.5555 1.02775L13 6.99746V31.4776H14.8586L24.05 40.4322C26.8328 42.8704 30.9258 42.4112 33.1906 39.4154L33.2109 39.3935L35.0289 41.0882C36.6437 42.5096 39.0305 42.2362 40.3406 40.4978L43.5297 36.2775L44.0781 36.7585C45.4695 37.9722 47.5211 37.7535 48.6484 36.2447L49.6133 34.9654C50.7508 33.4566 50.5375 31.259 49.1461 30.0344Z" fill="#79C762"/>
</svg>
