<svg width="10" height="12" viewBox="0 0 10 12" fill="none" xmlns="http://www.w3.org/2000/svg">
<path d="M8.50223 1.74375C7.56696 0.61875 6.32143 0 4.99777 0C2.26562 0 0.0424107 2.66786 0.0424107 5.94643C0.0424107 6.99375 0.270089 8.01696 0.703125 8.91964L0 12L2.62723 11.1723C3.35045 11.6464 4.16518 11.8955 4.99554 11.8955H4.99777C7.72768 11.8955 10 9.22768 10 5.94911C10 4.36071 9.4375 2.86875 8.50223 1.74375ZM4.99777 10.8938C4.2567 10.8938 3.53125 10.6554 2.89955 10.2054L2.75 10.0982L1.19196 10.5884L1.60714 8.76429L1.50893 8.57679C1.09598 7.78929 0.879464 6.88125 0.879464 5.94643C0.879464 3.22232 2.72768 1.00446 5 1.00446C6.10045 1.00446 7.13393 1.51875 7.91071 2.45357C8.6875 3.38839 9.16518 4.62857 9.16295 5.94911C9.16295 8.67589 7.26786 10.8938 4.99777 10.8938ZM7.2567 7.19196C7.13393 7.11696 6.52455 6.75804 6.41071 6.70982C6.29688 6.65893 6.21429 6.63482 6.1317 6.78482C6.04911 6.93482 5.8125 7.26696 5.73884 7.36875C5.66741 7.46786 5.59375 7.48125 5.47098 7.40625C4.7433 6.96964 4.26562 6.62679 3.78571 5.63839C3.65848 5.37589 3.91295 5.39464 4.14955 4.82679C4.18973 4.72768 4.16964 4.64196 4.13839 4.56696C4.10714 4.49196 3.85938 3.76071 3.7567 3.46339C3.65625 3.17411 3.55357 3.21429 3.47768 3.20893C3.40625 3.20357 3.32366 3.20357 3.24107 3.20357C3.15848 3.20357 3.02455 3.24107 2.91071 3.38839C2.79688 3.53839 2.47768 3.89732 2.47768 4.62857C2.47768 5.35982 2.92188 6.06696 2.98214 6.16607C3.04464 6.26518 3.85491 7.76518 5.09821 8.41071C5.88393 8.81786 6.19196 8.85268 6.58482 8.78304C6.82366 8.74018 7.31696 8.42411 7.41964 8.07589C7.52232 7.72768 7.52232 7.43036 7.49107 7.36875C7.46205 7.30179 7.37946 7.26429 7.2567 7.19196Z" fill="white"/>
</svg>
