<svg width="17" height="17" viewBox="0 0 17 17" fill="none" xmlns="http://www.w3.org/2000/svg">
<path d="M13.7096 3.22402C12.3184 1.82949 10.4656 1.0625 8.49668 1.0625C4.43262 1.0625 1.12559 4.36953 1.12559 8.43359C1.12559 9.73184 1.46426 11.0002 2.1084 12.1191L1.0625 15.9375L4.97051 14.9115C6.04629 15.4992 7.2582 15.808 8.49336 15.808H8.49668C12.5574 15.808 15.9375 12.501 15.9375 8.43691C15.9375 6.46797 15.1008 4.61855 13.7096 3.22402ZM8.49668 14.5662C7.39434 14.5662 6.31523 14.2707 5.37559 13.7129L5.15312 13.5801L2.83555 14.1877L3.45312 11.9266L3.30703 11.6941C2.69277 10.718 2.3707 9.59238 2.3707 8.43359C2.3707 5.05684 5.11992 2.30762 8.5 2.30762C10.1369 2.30762 11.6742 2.94512 12.8297 4.10391C13.9852 5.2627 14.6957 6.8 14.6924 8.43691C14.6924 11.817 11.8734 14.5662 8.49668 14.5662ZM11.8568 9.97754C11.6742 9.88457 10.7678 9.43965 10.5984 9.37988C10.4291 9.3168 10.3063 9.28691 10.1834 9.47285C10.0605 9.65879 9.70859 10.0705 9.59902 10.1967C9.49277 10.3195 9.3832 10.3361 9.20059 10.2432C8.11816 9.70195 7.40762 9.27695 6.69375 8.05176C6.50449 7.72637 6.88301 7.74961 7.23496 7.0457C7.29473 6.92285 7.26484 6.8166 7.21836 6.72363C7.17188 6.63066 6.80332 5.72422 6.65059 5.35566C6.50117 4.99707 6.34844 5.04688 6.23555 5.04023C6.1293 5.03359 6.00645 5.03359 5.88359 5.03359C5.76074 5.03359 5.56152 5.08008 5.39219 5.2627C5.22285 5.44863 4.74805 5.89355 4.74805 6.8C4.74805 7.70645 5.40879 8.58301 5.49844 8.70586C5.59141 8.82871 6.79668 10.6881 8.64609 11.4883C9.81484 11.993 10.273 12.0361 10.8574 11.9498C11.2127 11.8967 11.9465 11.5049 12.0992 11.0732C12.252 10.6416 12.252 10.273 12.2055 10.1967C12.1623 10.1137 12.0395 10.0672 11.8568 9.97754Z" fill="#121D4B"/>
</svg>
